# xmcd CD database file
#
# Track frame offsets:
#	150
#	16118
#	33845
#	58728
#	78755
#	100533
#	118168
#	141420
#	164015
#	184743
#
# Disc length: 2941 seconds
#
# Revision: 4
# Processed by: cddbd v1.5.2PL0 Copyright (c) Steve Scherf et al.
# Submitted via: CDex 1.70beta3
#
DISCID=7b0b7b0a
DTITLE=ARB - EL DORADO
DYEAR=1900
DGENRE=Rock
TTITLE0=これから…
TTITLE1=LONESOME RYDER
TTITLE2=EL DORADO
TTITLE3=グロリアが聞こえる
TTITLE4=RESPECT THE NIGHT
TTITLE5=SOULFUL DAY
TTITLE6=Nightmare Slayer
TTITLE7=MIDNIGHT STRANGER
TTITLE8=反逆のブルースを歌え
TTITLE9=人として
EXTD=
EXTT0=
EXTT1=
EXTT2=
EXTT3=
EXTT4=
EXTT5=
EXTT6=
EXTT7=
EXTT8=
EXTT9=
PLAYORDER=
